<?xml version="1.0" encoding="UTF-8" standalone="no"?>
<!-- Created with Inkscape (http://www.inkscape.org/) -->

<svg
   width="85.984924mm"
   height="57.399433mm"
   viewBox="0 0 85.984926 57.399432"
   version="1.1"
   id="svg1"
   inkscape:version="1.3 (0e150ed, 2023-07-21)"
   sodipodi:docname="hminteractive-hm.svg"
   inkscape:export-filename="hminteractive-hm.svg"
   inkscape:export-xdpi="96"
   inkscape:export-ydpi="96"
   xmlns:inkscape="http://www.inkscape.org/namespaces/inkscape"
   xmlns:sodipodi="http://sodipodi.sourceforge.net/DTD/sodipodi-0.dtd"
   xmlns="http://www.w3.org/2000/svg"
   xmlns:svg="http://www.w3.org/2000/svg">
  <sodipodi:namedview
     id="namedview1"
     pagecolor="#ffffff"
     bordercolor="#000000"
     borderopacity="0.25"
     inkscape:showpageshadow="2"
     inkscape:pageopacity="0.0"
     inkscape:pagecheckerboard="0"
     inkscape:deskcolor="#d1d1d1"
     inkscape:document-units="mm"
     inkscape:zoom="1.4668505"
     inkscape:cx="169.41059"
     inkscape:cy="60.674215"
     inkscape:window-width="1728"
     inkscape:window-height="1271"
     inkscape:window-x="0"
     inkscape:window-y="25"
     inkscape:window-maximized="0"
     inkscape:current-layer="g5" />
  <defs
     id="defs1">
    <rect
       x="114.30076"
       y="778.53912"
       width="584.44348"
       height="306.23975"
       id="rect2" />
  </defs>
  <g
     inkscape:groupmode="layer"
     id="layer2"
     inkscape:label="Layer 2"
     transform="translate(-56.382249,-154.91402)">
    <g
       id="g3">
      <g
         id="g4">
        <g
           id="g5">
          <g
             id="g6"
             inkscape:export-filename="g6.svg"
             inkscape:export-xdpi="96"
             inkscape:export-ydpi="96">
            <path
               id="text2"
               style="font-style:normal;font-variant:normal;font-weight:bold;font-stretch:normal;font-size:266.667px;font-family:'SF Pro';-inkscape-font-specification:'SF Pro Bold';letter-spacing:-70px;word-spacing:0px;white-space:pre;shape-inside:url(#rect2);display:inline;fill:#000000;stroke-width:20.0422;stroke-linecap:round;stroke-linejoin:round;stroke-dashoffset:21.9;paint-order:stroke fill markers"
               d="m 56.554274,154.91402 v 49.71272 h 10.448457 v -20.946 h 22.487482 v 20.946 h 0.152053 9.306775 0.989112 v -31.88435 l 12.780077,31.88435 h 6.57349 l 13.47755,-33.6243 h 0.29164 v 33.6243 h 9.30626 v -49.71272 h -12.0738 l -14.18486,35.72547 h -0.20758 L 101.71658,154.91402 H 99.938153 89.642266 89.490213 v 20.18843 H 67.002731 v -20.18843 z" />
            <path
               id="text3"
               style="font-style:normal;font-variant:normal;font-weight:bold;font-stretch:normal;font-size:12.4182px;font-family:'SF Pro';-inkscape-font-specification:'SF Pro Bold';letter-spacing:-1.46205px;word-spacing:0px;fill:#000000;stroke-width:14.1596;stroke-linecap:round;stroke-linejoin:round;stroke-dashoffset:21.9;paint-order:stroke fill markers"
               d="m 109.22128,205.73078 c -1.18632,0 -2.21273,0.13235 -3.07858,0.39687 -0.86585,0.26159 -1.53498,0.63779 -2.00727,1.12862 -0.47228,0.4879 -0.70811,1.07425 -0.70811,1.75907 v 0.005 c 0,0.25078 0.0424,0.48417 0.10557,0.70951 l -2.59257,-3.88864 h -0.75043 -0.725363 -1.518122 l -3.660741,5.47873 -1.659744,-1.62109 c 0.674688,-0.13814 1.208692,-0.37035 1.602259,-0.6966 0.399191,-0.32624 0.598888,-0.69782 0.598888,-1.11518 v -0.009 c 0,-0.42618 -0.174523,-0.79074 -0.523113,-1.09348 -0.342966,-0.30567 -0.840318,-0.53908 -1.492515,-0.70073 -0.646575,-0.16165 -1.425148,-0.24287 -2.335976,-0.24287 H 85.6436 85.448674 78.206627 77.581088 69.234286 68.61763 66.695546 v 4.13566 h -0.0486 l -5.500779,-4.13566 h -2.216824 -0.0094 -2.537694 v 6.36188 h 2.537694 0.0094 2.528811 v -4.16615 h 0.05174 l 5.514365,4.16615 h 2.210032 v -5.26376 h 2.899849 v 5.26376 h 2.547103 v -5.26376 h 2.89985 v 5.26376 h 7.867586 0.194926 2.352175 v -2.3058 h 1.914247 0.06742 0.05906 l 2.269083,2.3058 h 1.390089 1.494084 1.179486 l 0.916099,-1.54306 h 4.307712 l 0.9161,1.54306 h 2.67304 l -0.78964,-1.18442 c 0.44763,0.37575 1.02275,0.67846 1.7418,0.89813 0.87147,0.26452 1.90062,0.39687 3.08694,0.39687 0.98391,0 1.86096,-0.0987 2.63123,-0.29558 0.77027,-0.19986 1.38854,-0.47448 1.8552,-0.82424 0.47228,-0.34976 0.74802,-0.74972 0.82673,-1.19941 l 0.008,-0.0486 h -2.47968 l -0.0168,0.0439 c -0.10682,0.25276 -0.28956,0.46925 -0.54819,0.64853 -0.25863,0.17636 -0.58198,0.3111 -0.96992,0.40515 -0.38233,0.0941 -0.81785,0.14107 -1.307,0.14107 -0.64658,0 -1.21176,-0.0865 -1.69529,-0.25993 -0.4779,-0.17635 -0.84886,-0.426 -1.11311,-0.74931 -0.25863,-0.32624 -0.38828,-0.71287 -0.38828,-1.15961 v -0.004 c 0,-0.44382 0.12965,-0.82634 0.38828,-1.14671 0.26425,-0.3233 0.63521,-0.57125 1.11311,-0.74465 0.47791,-0.17341 1.04309,-0.26045 1.69529,-0.26045 0.50601,0 0.95027,0.0487 1.3326,0.14573 0.38794,0.094 0.7053,0.2276 0.95268,0.401 0.24738,0.17341 0.41917,0.37775 0.51475,0.61288 l 0.0334,0.0749 h 2.47969 l -0.008,-0.0398 c -0.0726,-0.41753 -0.31844,-0.78768 -0.72118,-1.11517 h 2.80318 v 5.26376 h 2.54658 v -5.26376 h 2.90037 v 5.26376 h 2.54711 v -5.13509 l 3.28813,5.13509 h 3.10313 l 3.27978,-5.12217 v 5.12217 h 8.06251 v -1.09761 h -5.51541 v -1.60042 h 5.20343 v -1.04024 h -5.20343 v -1.52549 h 5.51541 v -1.09812 h -7.2687 -0.79381 -2.03131 l -2.77495,4.99969 h -0.0502 l -2.78331,-4.99969 h -2.0313 -0.78546 -1.13663 -0.62502 -8.96397 v 0.64543 c -0.35816,-0.17891 -0.76624,-0.33324 -1.23855,-0.45578 -0.77027,-0.19987 -1.64732,-0.29973 -2.63123,-0.29973 z m -21.225505,1.15084 h 2.167179 c 0.62971,0 1.130322,0.0894 1.5014,0.26871 0.371079,0.17929 0.556559,0.42194 0.556559,0.72761 v 0.009 c 0,0.31155 -0.180002,0.55711 -0.539835,0.73639 -0.354211,0.17635 -0.848825,0.26459 -1.484154,0.26459 h -2.201149 z m -7.867587,0.0574 h 5.320486 v 4.16615 h -5.320486 v -1.60042 h 5.203425 v -1.04024 h -5.203425 z m 19.285648,0.13643 h 0.05069 l 1.536944,2.58795 H 97.8769 Z" />
          </g>
        </g>
      </g>
    </g>
  </g>
</svg>
